<svg width="100" height="100" viewBox="0 0 147 129" fill="none" xmlns="http://www.w3.org/2000/svg">
<path d="M144.986 58.1198L132.596 50.3841M144.986 58.1198L139.319 63.8017C138.323 64.8003 138.572 66.4099 139.807 66.9577L142.545 68.1717C142.802 68.2854 143.028 68.453 143.207 68.6632L145.768 71.66C146.575 72.6046 145.683 74.0905 144.414 73.9135V73.9135V73.9135C143.295 73.7572 142.357 74.8625 142.73 75.8978L143.556 78.1911V78.1911C143.747 79.1388 142.469 79.7449 141.892 78.9804L141.03 77.8384C139.775 75.6294 138.521 74.8214 135.892 73.8416C135.762 73.7931 135.625 73.7592 135.486 73.7398L135.065 73.6809C133.637 73.4816 132.406 74.8319 132.778 76.1893V76.1893C132.87 76.5274 133.058 76.8286 133.32 77.0597L137.461 80.7144C137.959 81.1541 138.18 81.8258 138.045 82.4957L137.586 84.7844C137.521 85.11 137.538 85.442 137.637 85.7503L138.598 88.7408C138.697 89.0491 138.714 89.3811 138.649 89.7068L138.037 92.7579M144.986 58.1198L138.28 43.6553C138.112 43.2923 138.065 42.8808 138.146 42.4771L138.631 40.0608C138.671 39.8607 138.742 39.6661 138.841 39.4837L140.302 36.795C140.698 36.0653 140.078 35.258 139.267 35.448V35.448C138.462 35.6367 137.842 34.8412 138.226 34.1124L139.798 31.1319C140.282 30.2142 139.697 29.1577 138.673 29.0988L137.074 29.0069C135.99 28.9446 135.788 27.4989 136.799 27.0428V27.0428C137.128 26.8945 137.368 26.5977 137.437 26.2533L137.852 24.1845C138.086 23.0195 136.742 22.2679 135.784 23.0278V23.0278C134.945 23.6933 133.741 23.2046 133.693 22.1794L133.623 20.6827C133.608 20.3475 133.68 20.0092 133.833 19.6997L135.357 16.6223C135.411 16.5143 135.476 16.4117 135.551 16.3162L136.032 15.7076C136.595 14.9959 136.217 13.9944 135.339 13.872V13.872C135.042 13.8305 134.733 13.903 134.477 14.0747L130.552 16.6978C129.978 17.0813 129.253 16.6313 129.385 15.9737V15.9737C129.403 15.8809 129.439 15.7913 129.49 15.7095L130.942 13.3941C130.994 13.3109 131.052 13.2312 131.116 13.1555L133.009 10.8982C133.237 10.6272 133.392 10.307 133.46 9.96869L133.963 7.45918L134.612 4.2249L134.824 3.16942C135.103 1.77871 133.871 0.631516 132.464 0.971511L128.656 1.89196L124.207 2.93423C124.113 2.95629 124.018 2.97184 123.922 2.98075L118.282 3.50642C118.146 3.51919 118.009 3.54554 117.876 3.58507L111.11 5.59567C111.006 5.62639 110.905 5.66496 110.807 5.71101L104.997 8.43947C104.746 8.55744 104.519 8.72284 104.33 8.92568L99.6799 13.9115C99.3918 14.2204 98.9712 14.3727 98.5638 14.3159L98.2198 14.2679C97.6376 14.1866 97.0965 14.6562 97.1031 15.2369L97.1124 16.0475C97.1195 16.6662 96.3177 16.9819 95.9324 16.5122V16.5122C95.5876 16.092 94.8751 16.2942 94.7649 16.8435L94.464 18.3434C94.2034 19.6427 92.4456 19.881 91.6783 18.8498C91.5381 18.6614 91.4341 18.5838 91.3899 18.6772C91.2098 19.0587 90.9071 23.1844 90.7713 25.157C90.7264 25.8088 90.3609 26.4145 89.7906 26.7802L86.7767 28.7127C86.375 28.9702 85.8983 29.0773 85.439 29.0132L82.1112 28.5487C81.7311 28.4957 81.6272 28.0174 81.9446 27.7825V27.7825C82.3056 27.5153 82.1123 26.9703 81.6722 27.0142L78.7721 27.3034C77.9997 27.3804 78.0842 25.8826 77.51 25.4071V25.4071C77.4225 25.3347 77.286 25.3132 77.1682 25.3208L64.7454 26.1247M132.596 50.3841C130.66 40.4332 122.681 31.6752 113.599 22.2978C112.703 21.3722 111.096 21.5947 110.378 22.7416C108.261 26.1257 107.063 28.2935 105.548 34.8029C105.359 35.6169 105.717 36.4361 106.425 36.8446C121.151 45.3441 122.617 46.5245 124.302 46.7596C126.03 47.0009 132.596 50.3841 132.596 50.3841ZM138.037 92.7579L138.57 101.599C138.612 102.288 138.281 102.968 137.698 103.392L133.873 106.176C133.439 106.492 133.138 106.955 133.036 107.466L132.271 111.279C131.942 112.916 129.732 113.38 128.91 111.984V111.984C128.812 111.819 128.744 111.637 128.708 111.446L128.597 110.853M138.037 92.7579L135.65 91.0303M128.432 109.972L128.854 107.868C128.907 107.604 128.906 107.335 128.85 107.078L127.02 98.6172C126.973 98.3999 126.888 98.1942 126.769 98.0088L122.253 90.9856C122.054 90.6764 121.766 90.4339 121.423 90.2865L116.614 88.2199C116.237 88.0578 115.81 88.0183 115.395 88.1072L115.253 88.1376C113.601 88.4908 112.985 90.5363 114.217 91.578V91.578L118.404 95.9163L122.549 100.463L126.847 105.54C127.001 105.722 127.117 105.931 127.191 106.158L128.432 109.972ZM128.432 109.972L128.597 110.853M81.5322 93.022L85.2241 91.5397C85.5332 91.4156 85.811 91.2211 86.0334 90.9731L88.3012 88.4454C88.5539 88.1637 88.7261 87.8232 88.7986 87.4616L89.0644 86.1366M81.5322 93.022L78.7109 93.3178C78.5446 93.3352 78.3778 93.3325 78.2145 93.3097L76.5338 93.0751C76.3129 93.0442 76.1009 92.977 75.9065 92.8763L74.3776 92.0834C74.2722 92.0287 74.1726 91.9645 74.0801 91.8915L72.9104 90.9689C72.6843 90.7906 72.5042 90.563 72.383 90.3026L71.8865 89.2356M81.5322 93.022L82.7519 94.9083M76.2248 87.4548V87.4548C76.0954 88.0999 75.6266 88.6468 74.9965 88.8878L74.0071 89.2662C73.6739 89.3936 73.3175 89.4353 72.9729 89.3872L71.8865 89.2356M76.2248 87.4548C76.7834 86.9328 77.225 86.6535 76.6624 85.9127C76.5968 85.8264 76.5178 85.7501 76.4326 85.6825C75.9963 85.3367 75.6462 85.1565 74.9016 85.3059C74.5039 85.3858 74.1291 85.6211 73.9374 85.9777C73.8443 86.1509 73.7962 86.3174 73.7984 86.5014C73.8034 86.9364 74.1671 87.261 74.5785 87.4036C75.1585 87.6047 75.5918 87.5861 76.2248 87.4548ZM71.8865 89.2356L70.9353 88.5635C70.7821 88.4552 70.6469 88.325 70.5338 88.1768L70.4139 88.0195C70.214 87.7575 70.0884 87.4461 70.049 87.1146L69.8992 85.8538C69.8236 85.2177 70.0715 84.5679 70.5634 84.1126L73.3119 81.5692C73.6335 81.2716 74.038 81.0774 74.4665 81.0148L80.8367 80.0845C81.0307 80.0561 81.2262 80.0553 81.4173 80.082L85.8404 80.6993C86.3178 80.766 86.7449 81.0011 87.0431 81.3613L88.8771 83.5772C89.2354 84.0101 89.3758 84.5848 89.2618 85.1526L89.0644 86.1366M89.0644 86.1366L87.0717 87.3173C86.6554 87.5639 86.172 87.6635 85.7062 87.5984L85.2306 87.5321M84.7875 83.6091C84.9555 83.696 85.0869 83.8258 85.1884 83.9868M85.2306 87.5321L84.0339 87.365C84.0339 87.365 84.0339 87.365 84.0339 87.365C84.0339 87.365 83.5021 87.2908 82.7043 87.1794C82.0656 87.0903 81.6731 86.2104 81.542 85.8632C81.507 85.7705 81.4667 85.6801 81.4389 85.5848C81.3321 85.219 81.4868 84.8256 81.73 84.5422C82.1009 84.11 82.7359 83.9156 83.2549 83.6789C84.2477 83.2261 84.8953 83.5858 85.1884 83.9868M85.2306 87.5321C85.396 86.7079 85.7473 84.8738 85.1884 83.9868M82.7519 94.9083L83.3159 95.7806C83.447 95.9832 83.6169 96.158 83.8169 96.2959L86.5171 98.1569C86.5965 98.2116 86.6811 98.2604 86.7681 98.3034C88.6418 99.2303 89.4015 100.09 91.939 99.1298C92.1264 99.0588 92.3209 99.0059 92.5183 98.9935C93.6272 98.9235 94.8531 99.0783 95.9633 98.534C96.5481 98.2474 97.18 98.0156 97.8191 98.0134C99.4453 98.0078 100.447 97.4181 102.317 97.6409C102.419 97.653 102.52 97.6756 102.618 97.7052L109.043 99.6507L116.918 103.324L127.369 109.824L128.597 110.853M82.7519 94.9083C82.7519 94.9083 88.511 97.506 85.6712 98.9624C82.8865 100.39 82.3632 102.253 76.749 103.495C76.5266 103.545 76.3076 103.627 76.1086 103.742L68.3746 108.213C68.1537 108.341 67.9567 108.507 67.7937 108.702L64.359 112.81C64.192 113.01 64.0636 113.237 63.9807 113.479L61.794 119.869L60.4229 126.703C60.3885 126.874 60.3161 127.038 60.2109 127.183V127.183C59.6044 128.017 58.3179 127.826 58.0879 126.867L55.024 114.097L52.3426 105.478C52.2481 105.174 52.2323 104.848 52.2965 104.528L53.0289 100.878C53.1961 100.044 53.8773 99.376 54.7272 99.2118L55.8241 98.9999C57.0455 98.764 58.1348 99.6374 58.126 100.846L58.1193 101.763C58.1177 101.978 58.0804 102.193 58.0088 102.4L56.4892 106.794L53.0795 114.805C52.9419 115.128 52.8906 115.476 52.9307 115.815L53.5798 121.296V121.296C53.7807 122.926 51.6009 123.852 50.644 122.543L44.6993 114.411C44.5628 114.225 44.4628 114.013 44.4042 113.788L42.7517 107.431C42.679 107.151 42.6715 106.856 42.7297 106.566L45.648 92.0194C45.6944 91.788 45.7831 91.5638 45.9043 91.3562C47.2682 89.021 47.5936 87.6465 51.8266 85.0681C54.8177 83.3576 55.4529 82.1323 61.6174 81.233C62.7303 80.9488 63.609 80.8578 64.4006 80.915C66.0497 81.034 65.9919 83.2576 64.4397 83.9269C63.0421 84.5295 61.3553 85.1626 58.7407 86.0332C57.2112 86.5718 56.1119 86.8414 53.0213 87.016C52.6957 87.0344 52.3721 87.1271 52.0835 87.2906C48.9242 89.0803 46.9687 90.3807 43.1126 91.2689C41.7647 91.5794 40.6133 90.3977 41.211 89.1586C41.6394 88.2704 42.2842 87.29 43.3677 85.9244C43.4432 85.8293 43.5307 85.7383 43.6202 85.6554C45.4938 83.9205 43.5647 84.2271 53.0092 79.1734C56.6578 76.5685 57.7477 74.864 63.7549 72.8515C63.9143 72.7981 64.0692 72.7231 64.2176 72.6426C64.286 72.6055 64.3576 72.569 64.4321 72.5332C66.3326 71.6192 67.2515 68.5225 65.5249 67.4946V67.4946C65.3269 67.3767 64.9876 67.2242 64.7544 67.1916L61.5744 66.7478C61.0237 66.6709 60.9276 65.9705 61.4498 65.7399C61.8654 65.5564 62.2682 65.4036 62.6693 65.2764C63.2374 65.0962 63.3535 63.8507 62.7802 63.7535V63.7535C62.7537 63.749 62.7195 63.7456 62.6924 63.7456C62.4284 63.7452 62.1801 63.7415 61.9445 63.7343C60.1722 63.6805 60.1641 61.6401 61.9393 61.4288C63.2584 61.2717 64.6453 61.3135 66.2566 61.5151C67.1382 61.6255 71.1053 62.1429 68.1181 61.775C71.3093 62.2204 70.8685 62.1461 69.9821 62.0224L73.4391 62.505M72.1095 62.3194C71.4616 61.5912 70.9825 61.0073 70.6081 60.4743C69.8483 59.3925 70.8475 58.0011 72.1588 58.3381C72.3525 58.3879 72.5095 58.4364 72.6258 58.4756C72.7856 58.5295 72.9287 58.6159 73.0584 58.7195L74.0554 59.5159C75.0475 60.3085 76.5303 59.8534 77.3682 58.8134V58.8134C77.8868 58.1696 78.9858 57.9537 79.6152 58.4258C81.0616 59.5105 81.8825 60.3974 82.3436 61.961C82.3794 62.0825 82.3825 62.2124 82.3569 62.3396L82.2304 62.9704C82.0993 63.6237 83.0455 64.0176 83.7183 63.981V63.981C84.0832 63.9612 84.2858 64.3076 84.2147 64.6619L84.0659 65.4038C83.7893 66.7826 85.6659 67.7655 87.0737 67.506C87.3901 67.4477 87.728 67.4063 88.0966 67.3777C88.2169 67.3683 88.3383 67.3727 88.4564 67.3888C91.7513 67.8389 93.6321 68.4387 96.8923 70.2833C96.0788 69.7145 101.584 64.3152 103.524 64.4812M103.524 64.4812L114.464 64.3923C114.563 64.3915 114.663 64.398 114.761 64.4116L122.325 65.4675L124.255 65.7369C125.218 65.8713 125.71 64.5691 124.861 64.1328V64.1328C124.812 64.1078 124.766 64.078 124.724 64.044L120.433 60.5915L114.695 56.4961C114.536 56.3827 114.359 56.2942 114.17 56.2338L110.219 54.9688C109.881 54.8607 109.584 54.6637 109.359 54.3985L108.616 53.5225C108.319 53.1715 107.897 52.9428 107.428 52.8772L98.6444 51.6513C98.3408 51.6089 98.0274 51.6361 97.7284 51.731L93.5104 53.0687C93.0405 53.2177 92.6319 53.5253 92.3596 53.9349L90.2926 57.0437C90.127 57.2928 90.0173 57.5714 89.9712 57.86L89.3335 61.851C89.2127 62.6069 89.5404 63.3398 90.1768 63.7373L92.1074 64.9432C92.3353 65.0855 92.5933 65.1786 92.8654 65.2165L95.3781 65.5673M103.524 64.4812L104.633 61.5015C104.684 61.3627 104.721 61.2172 104.739 61.0723C105.294 56.5355 103.105 54.9694 98.8263 54.9682C98.6755 54.9682 98.52 54.9872 98.3719 55.024C93.0916 56.3351 91.7397 59.4338 93.2856 63.0521M103.524 64.4812C105.463 64.6472 97.5132 66.9798 95.3781 65.5673M92.9552 62.655L93.2856 63.0521M95.3781 65.5673L93.2856 63.0521M51.2859 63.9174L45.1197 63.0567C44.6377 62.9894 44.1374 63.0984 43.7124 63.3633L37.6161 67.1628C37.4344 67.276 37.2703 67.4154 37.1297 67.5759L31.6027 73.8851C31.4125 74.1023 31.2689 74.3539 31.1815 74.6235L28.6504 82.4281C28.4962 82.9037 28.5249 83.4087 28.7311 83.8449L29.9599 86.4444C30.619 87.8387 32.6358 87.8728 33.5009 86.5042L36.8042 81.2783C36.9966 80.9739 37.265 80.7204 37.5822 80.5436L45.0916 76.3583C45.3011 76.2416 45.5277 76.1605 45.7613 76.1189L48.9521 75.5503L55.1823 73.7923M51.2859 63.9174C55.5416 64.5452 56.759 65.4117 57.5228 67.5765M51.2859 63.9174L47.1028 65.662C46.8126 65.783 46.551 65.9664 46.3381 66.1979L45.6648 66.9301C45.4024 67.2154 45.2205 67.5627 45.1446 67.9327C44.8108 69.5592 44.6571 71.4451 49.113 73.7352C49.2331 73.7969 49.364 73.8476 49.4979 73.8767C51.1354 74.2331 52.4443 73.6712 55.1823 73.7923M57.5228 67.5765C59.0746 71.022 58.2878 72.2697 55.1823 73.7923M57.5228 67.5765L59.2676 69.9686C60.0898 71.0957 59.4171 72.7458 57.992 73.098L55.1823 73.7923M37.815 122.206C31.5653 119.255 28.4528 117.099 25.761 110.307C25.6802 110.103 25.564 109.912 25.4205 109.747C23.8501 107.941 23.2527 106.784 23.9223 104.96C24.0525 104.605 24.1192 104.231 24.0829 103.865C23.7997 101.001 24.2874 99.3397 26.2745 96.9336C26.4524 96.7182 26.6015 96.475 26.6477 96.2068C27.008 94.116 24.9466 92.1637 24.5647 91.5055C24.423 91.2612 24.4442 90.66 24.563 89.8988C24.7736 88.5481 23.0746 87.4746 21.9798 88.3633V88.3633C21.4604 88.7849 20.7256 88.806 20.2507 88.3882C16.5597 85.141 16.049 82.476 16.1791 77.8371C16.1879 77.5233 16.121 77.216 15.9935 76.9355C15.2057 75.2037 15.131 74.0845 15.4301 72.345C15.4687 72.1207 15.5522 71.9027 15.6638 71.6994C15.8741 71.3162 16.0461 70.9663 16.1851 70.639C16.8069 69.1753 14.9285 68.6427 13.8976 69.8805V69.8805C13.5316 70.3199 13.3907 70.8872 13.4671 71.4295C13.6679 72.8534 13.5443 73.8703 13.1959 74.8442C12.7383 76.1236 10.9997 76.3887 10.196 75.3581C9.26363 74.1626 8.70751 72.9994 8.25455 71.2824C8.20279 71.0862 8.12077 70.8985 8.01733 70.7255C6.13113 67.5707 7.71376 65.7668 9.68519 62.7531C9.82449 62.5402 10.0001 62.3508 10.205 62.1964L13.1381 59.9869M13.1381 59.9869C25.5679 54.4563 32.1475 50.1791 36.8385 44.1905C37.9761 42.7382 39.9159 37.731 38.7826 36.3999C38.547 36.1231 38.2739 35.8473 37.9582 35.5781C35.1901 33.2175 25.3798 28.1404 21.6771 26.957C21.0285 26.7497 20.3492 27.0442 19.9112 27.5957L18.3326 29.5829C18.2694 29.6625 18.2109 29.7481 18.1601 29.8355C11.6912 40.9507 11.2436 47.6685 13.1381 59.9869ZM6.83672 62.0031L5.03071 53.2737C4.98595 53.0574 4.90366 52.852 4.78735 52.6665L1.3896 47.2461C1.22038 46.9761 1.12401 46.6656 1.10898 46.3421L0.731912 38.2217C0.724542 38.063 0.734089 37.9166 0.76578 37.7586C1.27854 35.2028 5.93893 11.9731 2.37439 29.7406C4.51947 19.0484 6.68754 12.959 7.98056 10.2477C8.38212 9.40567 9.35587 9.06437 10.217 9.35783L21.5448 13.2181C37.9516 19.9034 46.2249 24.4179 49.3317 26.5846C50.0195 27.0643 50.9568 27.1553 51.7328 26.7332L55.4364 24.7187C55.6564 24.599 55.8908 24.5192 56.1356 24.4831C57.6039 24.2668 63.1066 23.4807 65.6898 23.4556M65.6898 23.4556V23.4556C66.1181 23.4515 66.2522 23.89 65.9998 24.2432C63.5492 27.673 65.6876 25.3901 65.6898 23.4556ZM135.65 91.0303L135.297 87.3983C135.265 87.0705 135.149 86.7604 134.96 86.4964L133.327 84.2183C133.186 84.0223 132.994 83.8687 132.768 83.7727V83.7727C131.362 83.1734 130.02 84.9467 131.044 86.0526L135.65 91.0303Z" />
</svg>
